<?xml version="1.0" encoding="utf-8"?>
<!DOCTYPE svg PUBLIC "-//W3C//DTD SVG 1.0//EN" "http://www.w3.org/TR/2001/REC-SVG-20010904/DTD/svg10.dtd">
<svg version="1.0" xmlns="http://www.w3.org/2000/svg" width="154px" height="124px" viewBox="0 0 1028 825" preserveAspectRatio="xMidYMid meet">
 <g fill="#ffce61">
  <path d="M108.50 617.80 c-5.05 -1.10 -12.60 -4.30 -29.75 -12.70 -33.85 -16.60 -52 -36.35 -57.65 -62.65 -1.75 -7.90 -2.25 -14.85 -1.95 -25.70 0.65 -22.30 5.60 -39.45 15.85 -55 2.70 -4.10 5.30 -7.20 10.40 -12.30 8.05 -7.95 15.20 -13 26.30 -18.45 10.05 -4.90 16.70 -7.25 33.20 -11.55 2.65 -0.70 4.10 -1.30 4.10 -1.75 0 -0.45 0.60 -0.70 1.65 -0.70 l1.70 0 0.30 6.40 c0.20 3.50 0.50 10.65 0.65 15.90 l0.35 9.60 -3.70 0.55 c-20.60 3.25 -34.25 9.20 -45.20 19.65 -6.50 6.20 -10.65 11.85 -14.75 20.15 -5.55 11.35 -8.75 22.55 -9.35 33.20 -1 18.55 8.05 35 26.60 48.10 8.45 6 23.30 13 39.75 18.70 3.70 1.30 8.05 3 9.60 3.80 1.60 0.80 3.20 1.45 3.60 1.45 0.80 0 1.15 2.75 1.60 14.25 l0.30 8 -1.95 0.60 c-3.25 1 -8.15 1.15 -11.65 0.45z"/>
  <path d="M830.65 436.65 c0.20 -2.90 0.35 -10 0.35 -15.75 0 -10.35 0 -10.40 1.15 -10.90 0.60 -0.25 3.35 -1.15 6.10 -2 6.75 -2.15 16 -6.75 21.75 -10.85 6.15 -4.40 15.85 -14.05 20.55 -20.40 11.80 -16 20.55 -36.85 26.45 -62.75 4.10 -18 7.50 -28.10 12.85 -38 10.65 -19.70 27.05 -34.05 50.15 -43.90 8.95 -3.85 13.35 -4.80 22 -4.75 8.55 0 11.80 0.90 14.55 4 1.55 1.75 1.55 1.90 1.35 5.60 -0.35 5 -2.10 8.70 -6.35 13.20 -4.60 4.85 -12 9.60 -25.30 16.15 -16.30 8.05 -20.95 12.05 -29.15 25 -7.45 11.75 -13.65 25.95 -24.10 55.20 -8.50 23.75 -14.15 36.75 -19.10 43.85 -8.70 12.50 -26.90 28.35 -45.05 39.35 -8.70 5.25 -24.20 12.30 -27 12.30 l-1.50 0 0.30 -5.35z"/>
 </g>
 <g fill="#eea91d">
  <path d="M105.25 623.55 c-7.40 -2 -31.30 -13.40 -43.50 -20.70 -34.40 -20.65 -49.50 -47.60 -48.05 -85.85 0.60 -16.70 3.25 -29.90 8.65 -43 8.70 -21.05 26.85 -38.85 50.35 -49.40 11.40 -5.10 31.35 -11.10 36.90 -11.10 2.25 0 2.25 0.05 2.60 1.90 0.55 3.55 0.35 6.60 -0.45 6.60 -0.40 0 -0.75 -0.30 -0.75 -0.70 0 -0.40 -0.20 -0.85 -0.45 -1 -0.55 -0.35 -15.65 3.60 -21.55 5.60 -11.10 3.85 -20.10 8.25 -29.50 14.50 -8 5.30 -18 15.25 -23 22.85 -9.95 15.05 -15.10 32.50 -15.85 53.50 -1.40 39.65 16.50 65.70 59.60 86.85 26.35 12.90 30.40 14.20 38.90 12.10 0.75 -0.15 1.35 -0.65 1.35 -1 0 -0.40 0.30 -0.70 0.70 -0.70 0.90 0 1.65 8.85 0.80 9.70 -0.35 0.35 -3 0.60 -6.90 0.65 -4.95 0.10 -7.10 -0.05 -9.85 -0.80z"/>
  <path d="M119.50 596.75 c0 -0.40 -0.35 -0.75 -0.75 -0.75 -0.45 0 -2.05 -0.65 -3.65 -1.45 -1.55 -0.80 -5.90 -2.50 -9.60 -3.80 -29.80 -10.35 -46.30 -20.70 -57.35 -35.80 -4.20 -5.75 -7.45 -13.95 -8.70 -21.95 -1.35 -8.65 0.35 -22.55 4.10 -33.70 2.30 -6.90 7.95 -17.95 11.70 -22.90 6.35 -8.35 14.75 -15.35 24.25 -20.15 6.70 -3.40 17.50 -6.50 28.90 -8.25 2.50 -0.40 3.60 -0.80 3.60 -1.30 0 -0.95 1.30 -0.90 1.70 0.10 0.15 0.45 0.30 2.50 0.30 4.65 l0 3.85 -5.60 0.90 c-12.25 2 -24.30 6.55 -32.60 12.30 -4.55 3.15 -12.25 11.05 -15.35 15.75 -5.90 8.90 -10.65 21.10 -12.55 31.95 -2.40 14 0.50 25.45 9.35 37.05 3.30 4.35 6.25 7.15 11.75 11.20 10.25 7.60 21.25 12.90 42 20.25 2.90 1 6.25 2.35 7.50 2.95 l2.25 1.10 0.15 4.40 c0.10 3.65 0 4.35 -0.65 4.35 -0.40 0 -0.75 -0.35 -0.75 -0.75z"/>
  <path d="M830.60 443.65 c0.10 -3.30 0.35 -4.90 0.80 -5.05 0.35 -0.10 0.60 0.25 0.60 0.85 0 0.95 0.30 0.90 4.90 -1.05 17.05 -7.10 32.40 -16.85 47.85 -30.40 5.95 -5.20 14.15 -14.15 17.65 -19.15 4.95 -7.10 10.60 -20.10 19.10 -43.85 10.45 -29.25 16.65 -43.45 24.10 -55.20 8.20 -12.95 12.85 -16.95 29.15 -25 6.35 -3.10 13.90 -7.25 16.80 -9.20 8.80 -5.90 14.05 -12.55 14.80 -18.60 0.25 -2.10 0.10 -2.50 -1.30 -4.15 -2.55 -2.90 -6.10 -3.95 -13.05 -4 -7.05 0 -12.20 1.20 -20.50 4.75 -23.10 9.85 -39.50 24.20 -50.15 43.90 -5.35 9.90 -8.75 20 -12.85 38 -5.90 25.90 -14.65 46.75 -26.45 62.75 -4.70 6.35 -14.40 16 -20.55 20.40 -5.75 4.10 -15 8.70 -21.75 10.85 -6.70 2.10 -7.25 2.35 -7.25 3.25 0 0.40 -0.35 0.75 -0.75 0.75 -0.60 0 -0.75 -0.80 -0.75 -4.40 l0 -4.40 4.75 -1.40 c31.45 -9.45 53 -37.65 64.70 -84.55 1.10 -4.40 2.25 -9.35 2.55 -11 0.35 -1.65 1.50 -6.05 2.55 -9.75 9.15 -32 26.70 -53.35 55.65 -67.55 13.50 -6.65 20.15 -8.45 31.35 -8.45 6.05 0 7.95 0.20 10.75 1.05 7.75 2.40 11.20 6.45 11.20 13.30 0 10.40 -6.25 19.05 -20.25 27.90 -2.50 1.55 -9.45 5.30 -15.50 8.25 -12.45 6.10 -15.75 8.45 -21.05 15.15 -8.65 10.85 -16.10 26.50 -26.95 56.60 -14.50 40.30 -17.35 46.05 -28.95 59.15 -10.90 12.25 -27.95 25.60 -44.30 34.70 -10.65 5.90 -21.50 10.40 -25.05 10.40 l-2 0 0.15 -4.85z"/>
 </g>
 <g fill="#3fbab8">
  <path d="M194 796 l-36.75 -0.25 -0.35 -5 c-0.15 -2.75 -0.55 -10.95 -0.85 -18.25 -0.30 -7.30 -0.80 -16.95 -1.05 -21.50 -1.10 -18.70 -2 -36.50 -2.50 -48.50 -0.30 -7 -0.75 -16.25 -1 -20.50 -0.25 -4.25 -0.70 -12.90 -1 -19.25 -0.30 -6.30 -0.75 -15.65 -1 -20.75 -0.30 -5.10 -0.85 -16.65 -1.25 -25.75 -0.45 -9.05 -1.10 -22.90 -1.50 -30.75 -0.85 -16.45 -1.55 -30.35 -2.25 -45.25 -0.25 -5.75 -0.70 -14.90 -1 -20.25 -0.30 -5.35 -0.60 -12 -0.70 -14.75 -0.15 -2.75 -0.70 -13.75 -1.25 -24.50 -0.60 -10.70 -1.25 -24.80 -1.55 -31.25 -0.25 -6.45 -0.70 -15.55 -1 -20.25 -0.30 -4.65 -0.75 -13.10 -1 -18.75 -0.25 -5.65 -0.85 -18.25 -1.35 -28 -0.55 -11.35 -0.90 -25.40 -0.90 -39 0.05 -21.75 0.60 -30.45 3 -47 2.15 -14.95 5.70 -31.80 8.65 -41.50 0.55 -1.80 1.60 -5.15 2.30 -7.50 0.70 -2.35 2.10 -6.50 3.10 -9.25 1 -2.75 2.55 -7.25 3.55 -10 0.95 -2.75 2.45 -6.55 3.40 -8.50 0.90 -1.90 2.10 -4.65 2.65 -6.05 2.80 -7 11.65 -24.10 17.65 -33.95 25.05 -41.05 57 -73.50 97.95 -99.60 9.65 -6.20 30.10 -17.10 38.10 -20.40 1.75 -0.75 4.05 -1.70 5.15 -2.20 18.55 -8.40 49.95 -17.90 72.05 -21.85 4.10 -0.70 9.15 -1.60 11.25 -1.95 7.45 -1.35 25.55 -3.55 34.95 -4.25 19.65 -1.45 53.15 -1.45 66.50 -0.05 18.55 2 21.20 2.40 38.25 5.60 14.75 2.80 26.35 6.15 46.50 13.35 5.15 1.80 20.40 8.30 21.50 9.10 0.30 0.20 2.40 1.20 4.75 2.25 2.35 1 6.05 2.85 8.25 4.10 2.20 1.25 5.70 3.20 7.75 4.30 7.10 3.85 21.30 12.95 28.80 18.55 16.40 12.30 23.10 18.05 36.45 31.50 11.70 11.80 20.50 21.75 28.15 31.95 3.55 4.75 6.90 9.30 7.40 10.10 0.50 0.85 2.55 3.75 4.45 6.50 3.85 5.45 11.95 18.60 16.35 26.50 15.45 28 27.05 56.70 35.10 87.25 2.35 8.95 5.85 23.70 6.30 26.50 0.20 1.25 1.25 7.65 2.40 14.25 5.60 33.80 6.10 47.10 4.90 134.75 -0.45 32.85 -1.05 77.40 -1.30 99 -0.30 21.60 -0.70 55.45 -1 75.25 -0.30 19.80 -0.75 53.65 -1 75.25 -1.15 89.90 -1.10 89.45 -1.80 90.05 -0.90 0.75 -168.80 0.65 -169.25 -0.10 -0.15 -0.30 -0.45 -3.05 -0.60 -6.15 -1 -18.60 -14 -33.85 -32.40 -38.10 -3.25 -0.75 -9.05 -0.90 -48.20 -1.25 -107.75 -1 -187.30 -1.35 -190.60 -0.90 -4.15 0.60 -4.55 0.70 -8.90 2.55 -14.75 6.40 -23.80 19.15 -25.55 36.05 -0.25 2.45 -0.45 2.95 -1.60 3.55 -1.65 0.80 -9.10 3.50 -11.85 4.25 -2.40 0.65 -59.75 0.95 -115.25 0.55z m459.85 -320.30 c16.80 -3.80 30.40 -16.15 37.25 -33.95 5.50 -14.25 5.30 -30.65 -0.55 -44.85 -3.60 -8.70 -5.85 -12.25 -12 -18.55 -13.65 -14.05 -29.90 -18.65 -46.40 -13.05 -12.95 4.40 -25.25 16.35 -31.05 30.20 -3.80 9.15 -5.10 15.10 -5.10 23.80 0 17 5.95 31.70 17.50 43.20 5.15 5.10 8.85 7.70 14.50 10.10 10.25 4.35 16.95 5.15 25.85 3.10z m-354.80 -0.45 c24.25 -4.25 42.15 -25.10 42.05 -48.95 -0.05 -7.50 -1.20 -12.60 -4.40 -19.55 -2.55 -5.45 -7.95 -13.05 -11.35 -15.85 -0.85 -0.75 -2.65 -2.20 -3.95 -3.30 -2.85 -2.40 -9.95 -6.15 -14.95 -7.80 -2.05 -0.70 -6.20 -1.60 -9.20 -2.05 -5.15 -0.80 -5.85 -0.75 -10.75 0.05 -20.30 3.30 -35 15.35 -41.05 33.75 -3.55 10.90 -3.65 18.40 -0.40 29.25 6.85 22.85 31.35 38.45 54 34.45z m201.20 -51 c17.65 -3 30.35 -11.60 37.10 -25 1.70 -3.35 4 -11.25 4.65 -16 1.05 -7.50 -0.05 -20.40 -2.05 -23.65 -0.40 -0.65 -1.55 -1.65 -2.65 -2.20 -1.85 -0.95 -2 -0.95 -3.90 -0.10 -1.05 0.45 -2.40 1.60 -2.95 2.55 -1 1.60 -1 1.95 -0.45 4.80 0.90 4.55 0.75 18.25 -0.25 22.85 -1 4.80 -4.05 11.05 -6.95 14.35 -4.35 4.85 -11.90 8.85 -19.40 10.20 -1.75 0.30 -4.15 0.75 -5.40 0.95 -3.80 0.75 -19.30 0.55 -24.25 -0.25 -17.35 -2.80 -28.65 -12.70 -33.45 -29.40 -0.70 -2.40 -1.50 -6.40 -1.75 -8.90 -0.50 -5.10 -1.25 -6.60 -4.15 -8.15 -1.55 -0.85 -1.95 -0.90 -3.40 -0.30 -3.85 1.60 -4.75 4.15 -3.75 10.70 1.35 8.95 5.25 18.90 10.15 25.80 8.65 12.15 22.40 20 39.15 22.25 6.25 0.85 17.20 0.60 23.70 -0.50z m-220.35 -62.60 c1.50 -1.50 2.30 -2.95 3.55 -6.65 4.65 -13.45 12 -24.30 18.90 -27.75 l2.90 -1.50 10 0 c8.70 0.05 10.50 0.20 14 1.15 7.55 2.05 17.45 7.80 24.95 14.45 3.65 3.30 6.05 3.65 9.20 1.30 3.15 -2.35 3.95 -5.75 2 -8.50 -2.80 -3.95 -14.80 -12.65 -22.65 -16.40 -12.80 -6.15 -26.90 -8.15 -38.70 -5.45 -13.40 3.05 -26.65 18.40 -33.80 39.30 -1.80 5.25 -1.85 5.35 -1 7.10 1.40 2.95 3.90 4.80 6.50 4.80 1.85 0 2.50 -0.30 4.15 -1.85z m406.60 -17.50 c8.25 -2.25 15.40 -10.05 17.25 -18.90 1.70 -8.20 -2.90 -18.15 -10.65 -23.10 -3.50 -2.25 -9.15 -4.15 -12.35 -4.15 -10.05 0 -20.25 8.35 -23 18.75 -1.05 4.15 -0.95 6.75 0.50 11.10 3 8.85 9.95 15.15 18.65 16.90 3.60 0.70 5.25 0.60 9.60 -0.60z"/>
 </g>
 <g fill="#0eaeb8">
  <path d="M149.55 810.20 c-2.90 -1.45 -5.20 -4.20 -6.05 -7.15 -0.30 -1 -1.20 -15.40 -2 -32.05 -0.80 -16.65 -1.70 -34.75 -2 -40.25 -0.65 -12.10 -3.10 -62.20 -4.50 -90.75 -2.60 -54.10 -3.30 -68.35 -4 -81 -0.30 -5.10 -0.85 -16.55 -1.25 -25.50 -0.45 -8.95 -1.20 -25 -1.75 -35.75 -0.55 -10.70 -1.20 -24.20 -1.50 -30 -0.30 -5.75 -1.20 -23.75 -2 -40 -3.70 -74.10 -3.95 -82.20 -3 -100.50 2 -37.70 9.45 -72.60 22.75 -106.50 6.50 -16.60 14.85 -33.50 23.75 -48.25 17.65 -29.25 41.35 -56.95 67 -78.30 39.40 -32.75 83.65 -54.90 135.50 -67.90 26.65 -6.70 50.75 -10.20 81 -11.85 12.10 -0.65 43.40 -0.35 53.75 0.55 35.35 3 66.35 10.10 97.10 22.30 49.95 19.80 95.55 53.60 130.05 96.40 6.95 8.55 8.45 10.55 13.45 17.55 28.85 40.50 50.40 88.80 61.90 138.80 0.95 4.25 2 8.60 2.25 9.70 1.55 6.45 4.35 23.05 5.75 34.25 3 23.85 4 43.55 3.60 72 -0.20 11.40 -0.55 39.75 -0.80 63 -0.60 48.50 -1.35 103.85 -2.05 149.25 -0.25 17.35 -0.60 42.65 -0.75 56.25 -0.60 57.95 -1.25 106.95 -1.50 116.50 -0.30 11.90 -0.75 14.05 -3.85 17.05 -3.85 3.75 3.70 3.50 -97.15 3.35 l-90.50 -0.15 -2.30 -1.35 c-4.40 -2.60 -5.95 -5.70 -5.95 -12.05 0 -8.20 -0.80 -12.60 -3.05 -17.30 -3.30 -6.75 -8.90 -11.45 -16.45 -13.80 -2.50 -0.80 -8.70 -0.95 -72 -1.55 -163.70 -1.50 -161.85 -1.50 -165.75 -0.30 -7.35 2.25 -13.35 7.25 -16.50 13.85 -1.95 4.10 -2.75 8.20 -2.75 14.60 l0 4.55 -2.50 2.25 c-4.40 3.95 -14 8.30 -22.90 10.40 -4 0.90 -6.75 0.95 -82.25 0.95 l-78.15 0 -2.65 -1.30z m158.20 -16.25 c2.85 -0.80 10.25 -3.45 11.85 -4.25 1.15 -0.60 1.35 -1.10 1.60 -3.55 1.75 -16.90 10.70 -29.55 25.60 -36.05 6.65 -2.95 5.55 -2.85 42.70 -2.75 44.10 0.15 185.25 1.10 196 1.35 9.55 0.25 13.60 1 20.10 3.80 13.75 5.90 23.50 19.90 24.20 34.75 0.15 2.75 0.35 5.50 0.50 6.15 l0.20 1.10 79.15 0.05 c43.50 0.05 80.70 0.10 82.65 0.15 2.15 0.05 3.85 -0.20 4.30 -0.55 0.75 -0.65 0.95 -8.70 1.65 -75.90 0.15 -11.55 0.35 -27.20 0.50 -34.75 0.15 -7.55 0.40 -26.55 0.55 -42.25 0.15 -15.65 0.45 -36.35 0.70 -46 0.20 -9.60 0.40 -26.60 0.45 -37.75 0 -11.15 0.15 -24.50 0.30 -29.75 0.65 -23.15 1.85 -136.20 1.55 -147.25 -0.55 -22.20 -1.95 -37.05 -5.40 -57.75 -1.15 -6.60 -2.20 -13 -2.40 -14.25 -0.45 -2.80 -3.95 -17.55 -6.30 -26.50 -8.05 -30.55 -19.65 -59.25 -35.10 -87.25 -4.40 -7.90 -12.50 -21.05 -16.35 -26.50 -1.90 -2.75 -3.95 -5.65 -4.45 -6.50 -0.50 -0.80 -3.85 -5.35 -7.40 -10.10 -7.65 -10.20 -16.45 -20.15 -28.15 -31.95 -13.35 -13.45 -20.05 -19.20 -36.45 -31.50 -7.50 -5.60 -21.70 -14.70 -28.80 -18.55 -2.05 -1.10 -5.55 -3.05 -7.75 -4.30 -2.20 -1.25 -5.90 -3.10 -8.25 -4.10 -2.35 -1.05 -4.45 -2.05 -4.75 -2.25 -1.10 -0.80 -16.35 -7.30 -21.50 -9.10 -10.60 -3.80 -21.55 -7.35 -28.75 -9.35 -14.70 -4.05 -41.70 -8.55 -58.75 -9.75 -10.10 -0.75 -12.95 -0.80 -27.75 -0.80 -19.55 -0.05 -35.80 0.85 -50 2.70 -3.15 0.40 -7.65 1 -9.95 1.30 -2.35 0.30 -5.95 0.85 -8 1.25 -2.10 0.35 -7.15 1.25 -11.25 1.95 -22.10 3.95 -53.50 13.45 -72.05 21.85 -1.10 0.50 -3.40 1.45 -5.15 2.20 -8 3.30 -28.45 14.20 -38.10 20.40 -9.10 5.75 -12.45 8.15 -21.50 14.95 -12.55 9.55 -19.95 15.90 -30.85 26.75 -17.80 17.65 -32.05 35.75 -45.60 57.90 -6 9.85 -14.85 26.95 -17.65 33.95 -0.55 1.40 -1.75 4.15 -2.65 6.05 -0.95 1.95 -2.45 5.75 -3.40 8.50 -1 2.75 -2.55 7.25 -3.55 10 -1 2.75 -2.40 6.90 -3.10 9.25 -0.70 2.35 -1.75 5.70 -2.30 7.50 -2.95 9.70 -6.50 26.55 -8.65 41.50 -2.35 16.20 -2.95 25.40 -2.95 45.50 -0.05 12.15 0.30 26.60 0.85 37.50 0.50 9.75 1.10 22.35 1.35 28 0.25 5.65 0.70 14.10 1 18.75 0.55 9.50 0.85 15.85 1.25 25.50 0.15 3.60 0.45 10.45 0.75 15.25 0.25 4.80 0.60 12.25 0.75 16.50 0.20 4.25 0.55 9.95 0.80 12.70 0.25 2.70 0.45 7.20 0.45 9.95 0 2.80 0.20 8.10 0.50 11.85 0.25 3.70 0.70 12.05 1 18.50 0.65 14.35 1.85 38.75 2.50 50.25 0.25 4.70 0.60 11.75 0.75 15.75 0.20 4 0.40 8.05 0.50 9 0.05 0.95 0.30 6.15 0.45 11.50 0.20 5.35 0.55 12.70 0.80 16.25 0.25 3.60 0.60 10.10 0.75 14.50 0.15 4.40 0.40 9.35 0.50 11 0.15 1.65 0.35 5.50 0.50 8.55 0.15 3 0.45 9.90 0.75 15.25 0.25 5.30 0.70 15.15 1 21.75 0.25 6.65 0.60 13.65 0.75 15.50 0.40 5.45 1.70 30.40 2.80 54.20 0.30 6.75 0.70 12.40 0.90 12.60 0.40 0.45 55.60 0.70 110.05 0.55 25.50 -0.10 37.35 -0.30 38.75 -0.70z"/>
  <path d="M637.75 477.75 c-3.65 -0.70 -9.05 -2.50 -13.15 -4.40 -8.50 -4 -17.70 -13.25 -23.20 -23.45 -2.50 -4.55 -5.20 -12.85 -6.10 -18.55 -1.05 -6.30 -1.05 -17.95 -0.05 -23.40 2.15 -11.60 7.50 -22.30 15.30 -30.65 9.90 -10.60 21.40 -15.80 35 -15.80 13.70 0 24.05 4.60 34.50 15.35 6.15 6.30 8.40 9.85 12 18.55 3.25 7.85 4.45 14.60 4.50 24.50 0 9.90 -1 15.65 -3.95 23.35 -6.80 17.60 -19.45 29.35 -36.50 33.80 -4.85 1.30 -13.55 1.60 -18.35 0.70z"/>
  <path d="M281.70 476.50 c-10.10 -2.30 -17.75 -6.25 -24.80 -12.95 -11.40 -10.70 -17.10 -26.05 -15.55 -41.70 0.70 -6.75 3.60 -16.20 6.50 -20.95 6.60 -10.90 16 -18.50 27.65 -22.40 3.90 -1.30 12.85 -3 16.05 -3 3.75 0 12.45 1.45 16.40 2.80 5 1.65 12.15 5.40 14.95 7.80 1.30 1.10 3.10 2.55 3.95 3.30 3.40 2.80 8.80 10.40 11.35 15.85 3.40 7.35 4.50 12.45 4.45 21.25 0 7.70 -0.75 11.85 -3.40 19.20 -3.45 9.50 -12.90 20.05 -22.85 25.55 -10.25 5.60 -23.95 7.70 -34.70 5.25z"/>
  <path d="M497 412.30 c0 -0.40 0.60 -0.85 1.35 -1.05 0.75 -0.15 1.55 -0.55 1.70 -0.80 0.50 -0.80 2.95 0.05 2.95 1.05 0 0.60 -0.55 0.95 -1.85 1.20 -2.95 0.45 -4.15 0.35 -4.15 -0.40z"/>
  <path d="M682.50 297.55 c0 -0.65 0.45 -1 1.50 -1.15 0.85 -0.15 1.50 -0.05 1.50 0.20 0 0.20 0.35 0.40 0.75 0.40 0.40 0 0.75 0.35 0.75 0.75 0 0.55 -0.60 0.75 -2.25 0.75 -1.85 0 -2.25 -0.15 -2.25 -0.95z"/>
  <path d="M0.30 528.40 c-0.50 -1.90 -0.35 -2.40 0.70 -2.40 0.80 0 1 0.35 1 1.75 0 2 -1.20 2.45 -1.70 0.65z"/>
 </g>
 <g fill="#353533">
  <path d="M153 824.50 c-0.40 -0.25 -1.35 -0.50 -2.10 -0.50 -2.25 0 -7.75 -2.45 -10.80 -4.85 -4.70 -3.60 -7.95 -8.40 -9.45 -13.90 -0.60 -2.30 -1.15 -9.40 -1.90 -25.50 -0.15 -3.30 -0.50 -10.05 -0.75 -15 -0.25 -4.95 -0.70 -13.95 -1 -20 -0.30 -6.05 -0.75 -15.15 -1 -20.25 -0.30 -5.10 -0.85 -16.20 -1.25 -24.75 -0.40 -8.50 -1 -20.45 -1.30 -26.50 -0.30 -6.05 -0.80 -16.50 -1.10 -23.25 l-0.60 -12.25 -4.75 0.20 c-5.55 0.20 -12.35 -0.85 -17.95 -2.75 -6.55 -2.25 -29 -12.95 -39.30 -18.70 -22.80 -12.80 -39.10 -28.65 -48.65 -47.40 -6.35 -12.45 -9.10 -22.80 -10.65 -39.70 -0.70 -7.45 -0.15 -18.20 1.35 -28.90 5.10 -35.40 23.45 -63.55 52.90 -80.95 13.75 -8.10 29.40 -14.10 47 -18.05 3.65 -0.85 7.05 -1.50 7.50 -1.50 0.75 0 0.85 -0.50 0.55 -4.60 -1.75 -27.75 -2.25 -57.25 -1.25 -72.40 2.15 -32.15 7.95 -61.70 17.85 -90.65 33 -96.85 104.40 -169.95 201.50 -206.40 36.40 -13.65 76.75 -21.90 119.65 -24.45 13.65 -0.85 52.05 -0.40 63 0.70 45 4.50 84.50 15.75 122.25 34.80 76.25 38.50 135.15 105.20 169.50 192 18.80 47.60 29.05 99.40 30.40 154.15 0.10 3.75 0.30 7 0.50 7.15 0.65 0.70 10.95 -3.95 15.35 -6.95 7.80 -5.30 14.60 -12.35 20.50 -21.25 9.05 -13.55 15.10 -29.60 20.75 -54.75 2.75 -12.35 5.35 -20.80 9.10 -29.30 8.45 -19.45 20.70 -35.05 37.15 -47.40 12.15 -9.15 31.10 -18.15 44.05 -20.95 6 -1.30 18.80 -1.30 23.95 0 16.70 4.20 26.55 17.85 23.30 32.30 -3.05 13.25 -10.45 22.80 -25.35 32.50 -2.60 1.70 -10 5.70 -16.45 8.85 -10.95 5.40 -12 6.05 -15 9.10 -8.95 9.05 -15.70 23.10 -29.35 61.05 -9.15 25.40 -14.65 38 -20.55 46.75 -6.50 9.65 -19.15 22.60 -31.80 32.45 -16.35 12.75 -37.05 24.05 -52.85 28.90 l-3.85 1.15 -0.30 11 c-0.35 12.90 -0.60 30.65 -1.30 86.25 -0.25 22.40 -0.60 46.05 -0.75 52.50 -0.15 6.45 -0.35 22.10 -0.50 34.75 -1.45 126.30 -2 155 -2.85 158 -0.95 3.25 -3.15 7.45 -5.10 9.90 -3.10 3.90 -9.70 7.85 -14.95 9 -3.35 0.70 -180.60 1.10 -182.10 0.40 -0.55 -0.25 -1.90 -0.60 -3 -0.75 -6.20 -0.85 -14.15 -7.20 -17.45 -13.85 -2.30 -4.70 -2.80 -7.50 -2.80 -15.40 0 -5.85 -0.10 -6.55 -1.30 -9 -1.40 -2.75 -4.05 -5.10 -6.85 -6 -1.50 -0.50 -67.65 -1.30 -150.10 -1.80 -18.15 -0.15 -44 -0.35 -57.50 -0.45 -23.30 -0.25 -24.60 -0.20 -26.50 0.70 -2.40 1.15 -3.70 2.20 -5.40 4.50 -1.50 2.05 -1.70 3.25 -2.10 11.45 -0.35 7.85 -1.35 10.10 -6.50 14.95 -7 6.60 -19.10 12.25 -32.25 15 -3.30 0.70 -12.80 0.80 -81.25 0.95 -49.85 0.10 -77.75 -0.05 -78.25 -0.35z m158.10 -15.45 c8.90 -2.10 18.50 -6.45 22.90 -10.40 l2.50 -2.25 0 -4.55 c0 -6.40 0.80 -10.50 2.75 -14.60 3.10 -6.50 9.05 -11.55 16.25 -13.80 3.15 -1 4.35 -1.05 35.75 -0.95 17.90 0 35.10 0.15 38.25 0.20 5.75 0.20 41.20 0.55 121.75 1.30 46.90 0.40 44.45 0.20 50.95 3.65 7.05 3.75 12.30 11.55 13.30 19.85 0.25 2.30 0.50 6.30 0.50 8.85 0 6.35 1.55 9.45 5.95 12.05 l2.30 1.35 89 0.15 c99.20 0.15 91.80 0.40 95.65 -3.35 3.15 -3.05 3.55 -5 3.85 -18.80 0.30 -14.55 1.10 -78.65 1.50 -116.75 0.15 -15.25 0.35 -33.25 0.50 -40 0.15 -6.75 0.35 -21.35 0.50 -32.50 0.35 -26.25 0.70 -49.45 1 -71.25 0.20 -9.60 0.50 -36.50 0.80 -59.75 0.25 -23.25 0.60 -50.90 0.80 -61.50 0.40 -26.75 -0.60 -46.90 -3.60 -70.50 -1.40 -11.20 -4.20 -27.80 -5.75 -34.25 -0.25 -1.10 -1.30 -5.45 -2.25 -9.70 -10.35 -44.85 -29.70 -90.55 -54.15 -127.55 -3.65 -5.55 -12.15 -17.45 -15.15 -21.25 -10.90 -13.75 -16.50 -20.20 -26.40 -30.40 -31.55 -32.35 -68.85 -57.35 -109.70 -73.55 -30.75 -12.20 -61.40 -19.25 -97.10 -22.35 -8.65 -0.70 -43.50 -1 -53.25 -0.40 -44.05 2.65 -82.75 10.60 -119.40 24.50 -54.50 20.70 -101.25 54.20 -136.65 97.95 -18 22.25 -31.60 44.65 -44.20 72.75 -2.45 5.50 -7.60 18.90 -10.15 26.50 -9.65 28.90 -15.50 59.50 -17.05 89.75 -0.95 18.40 -0.70 25.65 2.95 98.75 0.80 16.25 1.70 34.25 2 40 0.30 5.80 0.95 19.30 1.50 30 0.55 10.75 1.30 26.80 1.75 35.75 0.40 8.95 0.95 20.40 1.25 25.50 0.70 12.65 1.40 26.90 4 81 1.40 28.55 3.85 78.65 4.50 90.75 0.30 5.50 1.20 23.60 2 40.25 0.80 16.65 1.70 31.05 2 32.05 0.85 2.95 3.15 5.70 6.05 7.15 l2.65 1.30 76.65 0 c74 0 76.75 -0.05 80.75 -0.95z m-190.70 -186.80 c0.40 -0.40 0 -11.35 -1 -29.25 -0.15 -2.70 -0.20 -2.75 -2.40 -3.85 -1.25 -0.60 -4.60 -1.95 -7.50 -2.95 -20.75 -7.35 -31.75 -12.65 -42 -20.25 -7.35 -5.45 -12.25 -10.80 -16.10 -17.70 -3.95 -7.05 -5.35 -12.10 -5.75 -21 -0.20 -5.25 -0.05 -7.65 0.75 -12.55 1.90 -10.85 6.65 -23.05 12.55 -31.95 3.10 -4.70 10.80 -12.60 15.35 -15.75 8.30 -5.75 20.35 -10.30 32.65 -12.30 l5.65 -0.95 -0.30 -4.75 c-0.15 -2.60 -0.50 -10.15 -0.80 -16.75 -0.65 -15.50 -0.85 -17.25 -1.90 -17.25 -1.80 0 -15.40 3.65 -22.15 5.95 -18.10 6.20 -31.60 14.05 -43.35 25.25 -13.60 13.05 -22.30 29.30 -26.30 49.40 -7.85 38.90 1.35 70.30 26.95 92.40 10.90 9.40 21.15 15.65 41 25.10 19 9.05 21.85 10 29.35 9.75 2.70 -0.05 5.10 -0.35 5.30 -0.60z m-2.10 -53.35 c-0.15 -2.55 -0.55 -9.70 -0.80 -15.90 -0.25 -6.20 -0.85 -17.90 -1.25 -26 -1.75 -33.85 -2.75 -54.45 -2.75 -56.15 0 -1.75 -0.10 -1.85 -1.55 -1.85 -2.95 0 -13.20 2.55 -18.20 4.55 -14.80 5.90 -24.50 16.60 -30 33.10 -2.30 7 -3.25 12 -3.30 17.75 -0.10 6.30 0.65 9.90 3.05 14.85 6.10 12.50 21.10 22.45 48.75 32.20 3.05 1.05 5.70 1.95 5.95 2 0.25 0 0.30 -1.95 0.10 -4.55z m720.90 -124.25 c28.55 -11.20 61.15 -37.45 72.55 -58.40 4.15 -7.60 8.10 -17.40 17.50 -43.50 10.85 -30.10 18.30 -45.75 26.95 -56.60 5.30 -6.70 8.60 -9.05 21.05 -15.15 16.25 -7.95 24 -13.20 29.50 -19.85 3.35 -4.05 5.10 -7.70 5.80 -12.05 0.70 -4.15 0.10 -6.85 -2.15 -9.40 -3.80 -4.30 -9.25 -6.20 -17.85 -6.20 -9.60 0 -17 2.10 -29.85 8.45 -28.95 14.20 -46.50 35.55 -55.65 67.55 -1.05 3.70 -2.20 8.10 -2.55 9.75 -3.45 17.50 -9.60 36.15 -16.25 49.15 -12.45 24.50 -29.40 39.90 -51 46.40 l-4.75 1.40 0 12.55 c0 6.85 -0.15 16.10 -0.35 20.45 l-0.30 7.95 1.40 -0.35 c0.75 -0.20 3.45 -1.15 5.95 -2.15z"/>
  <path d="M475.05 426.25 c-16.75 -2.25 -30.50 -10.10 -39.15 -22.25 -4.95 -7 -8.80 -16.80 -10.20 -26.20 -1.25 -8.20 -0.30 -11.50 3.80 -13.25 1.75 -0.75 2.70 -0.90 4.15 -0.55 4.40 0.95 5.80 2.95 6.45 9 1.50 15.10 9.25 27.65 20.90 33.70 7.85 4.10 16.20 5.60 28.85 5.15 14.90 -0.50 24.95 -4.15 31.45 -11.50 2.90 -3.35 5.95 -9.60 6.95 -14.35 0.90 -4.20 1.05 -16.50 0.25 -19.75 -0.75 -3.10 -0.60 -6.20 0.40 -7.85 1.05 -1.85 3.95 -3.40 6.35 -3.40 2.20 0 5.25 1.50 6.20 3.10 2.05 3.30 3.20 18.20 2.05 26.50 -0.65 4.85 -2.90 12.75 -4.65 16.15 -6.75 13.40 -19.40 21.95 -37.10 25 -6.35 1.15 -20.25 1.40 -26.70 0.50z"/>
  <path d="M272.70 365 c-1.70 -0.55 -4.50 -3.35 -5.25 -5.35 -0.80 -2.15 -0.50 -4.45 1.35 -9.75 7.20 -20.75 20.35 -36 33.75 -39.10 1.80 -0.45 6.05 -0.90 9.45 -1.10 17.90 -0.95 34.20 5 49.95 18.20 5.25 4.40 6.10 5.75 6.10 9.30 0 4.80 -2.80 8.10 -7.40 8.60 -2.90 0.35 -5.25 -0.50 -7.95 -2.95 -7.50 -6.65 -17.40 -12.40 -24.95 -14.45 -3.35 -0.90 -5.40 -1.10 -12.50 -1.10 -8.45 -0.05 -8.50 -0.05 -11.40 1.45 -6.80 3.40 -14.15 14.10 -18.80 27.40 -1.95 5.55 -2.20 6.05 -4.20 7.55 -1.85 1.40 -5.75 2 -8.15 1.30z"/>
  <path d="M675.40 346.25 c-16.35 -3.40 -24.80 -21.85 -16.85 -36.80 1.90 -3.50 6.80 -8.35 10.25 -10.10 4.55 -2.30 7.95 -3 12.95 -2.70 9.90 0.65 17.45 5.50 21.50 13.90 4.50 9.40 2.90 20.40 -4.10 27.95 -6.20 6.75 -15 9.60 -23.75 7.75z"/>
 </g>
</svg>