<?xml version="1.0" encoding="utf-8"?>
<!-- Generator: Adobe Illustrator 25.2.3, SVG Export Plug-In . SVG Version: 6.00 Build 0)  -->
<svg version="1.1" id="Layer_1" xmlns="http://www.w3.org/2000/svg" xmlns:xlink="http://www.w3.org/1999/xlink" x="0px" y="0px"
	 viewBox="0 0 85.3 50.1" style="enable-background:new 0 0 85.3 50.1;" xml:space="preserve">
<style type="text/css">
	.st0{fill:#FFFFFF;}
</style>
<g id="Artwork">
	<g>
		<path class="st0" d="M85.1,0.5c-5.7,0-10.7,3.3-13.3,8c-2.6-4.7-7.6-8-13.3-8v28.7h26.6L85.1,0.5z"/>
		<path class="st0" d="M15,10h9.7c0-5.8-5.3-9.9-12.3-9.9C5.9,0.1,0.2,3.9,0.2,10c0,5.3,4.4,9.6,9.8,9.6H0.2c0,6.1,5.7,9.9,12.3,9.9
			c7,0,12.3-4,12.3-9.9h0C24.8,14.3,20.3,10,15,10z"/>
		<path class="st0" d="M41.6,0.1c-7.3,0-13.3,5.9-13.3,13.3v15.9h8.1v-2.5h10.3v2.5l8.1,0V13.4C54.8,6,48.9,0.1,41.6,0.1z"/>
	</g>
	<g>
		<path class="st0" d="M67.9,42.1l-0.1-0.1l0.1-0.1c0.9-0.6,1.3-1.6,1.3-2.6c0-2.3-1.9-3.6-3.7-3.6h-6.5v14h6.4
			c2.9,0,4.5-2.3,4.5-4.5C70,44.5,69.7,43.1,67.9,42.1z M62.4,38.8h2.7c0.6,0,0.9,0.5,0.9,1c0,0.5-0.3,1.1-1,1.1h-2.7L62.4,38.8
			L62.4,38.8z M65.6,46.6h-3.2v-2.7h3.2c0.8,0,1.2,0.7,1.2,1.4C66.7,45.9,66.4,46.6,65.6,46.6z"/>
		<path class="st0" d="M84.7,44.4c-0.6-2.4-2.8-3-5.1-3.3c0,0-0.1,0-0.2,0c-0.6,0-2-0.2-2-1.2c0-0.8,0.7-1.3,1.9-1.3
			c1.1,0,1.9,0.6,1.9,1.5h3.3c0-3.1-2.6-4.5-5.2-4.5c-1.7,0-3.2,0.6-4.2,1.6c-0.8,0.9-1.2,2-1.2,3.3l0,0c0.2,3,2.6,3.7,5.2,3.9
			c0.1,0,0.1,0,0.2,0c0.7,0.1,2,0.2,2,1.2c0,0.8-0.8,1.2-2.1,1.2c-0.6,0-2-0.2-2-1.7H74c0,3.6,3.2,4.9,5.4,4.9
			c2.7,0,5.5-1.7,5.5-4.6C84.8,45.1,84.8,44.7,84.7,44.4z"/>
		<polygon class="st0" points="28.3,35.8 28.3,49.8 37.5,49.8 37.5,46.6 31.6,46.6 31.6,35.8 		"/>
		<path class="st0" d="M46.8,35.6l-5.6,14.2h3.5l0.8-2.1h4.9l0.8,2.1H55l-5.8-14.2H46.8z M46.7,44.6l0.2-0.4L48,41l1.3,3.6
			L46.7,44.6L46.7,44.6z"/>
	</g>
</g>
</svg>
